<?xml version="1.0" encoding="utf-8"?>
<!-- Generator: Adobe Illustrator 22.1.0, SVG Export Plug-In . SVG Version: 6.00 Build 0)  -->
<svg version="1.1" id="Layer_1" xmlns="http://www.w3.org/2000/svg" xmlns:xlink="http://www.w3.org/1999/xlink" x="0px" y="0px"
	 viewBox="0 0 512 512" style="enable-background:new 0 0 512 512;" xml:space="preserve">
<style type="text/css">
	.st0{fill:#28B56D;}
</style>
<path class="st0" d="M494.3,126.7c-3-4-9-4.4-12.7-0.8l-47,47.2c-0.9,0.9-2.4,1.4-3.7,1.2l-48.6-8.8c-1.7-0.3-3-1.7-3.4-3.4
	l-8.7-48.6c-0.2-1.4,0.2-2.7,1.2-3.7l46.9-47.1c3.7-3.7,3.1-9.7-1-12.7c-10.6-7.5-23.1-11.2-33.3-11.2c-0.7,0-1.5,0-2.1,0.1
	c-13.1,0.7-41.2,8.1-62.8,31.1c-21.1,22.2-43,63.5-23.6,109.4c2.3,5.6,4.9,12.9-2.8,20.6c-2.2,2.2-19.9,18.8-44,41.6l-72.2-58
	c-3.7-13.4,1.4-31.5,5-38.1l13.9-14.2l10,10c2.2,2.2,6,2.2,8.3,0l35.9-35.9c2.2-2.2,2.2-6,0-8.3l-57.9-57.9c-2.2-2.2-6-2.2-8.3,0
	l-35.9,35.9c-2.2,2.2-2.2,6,0,8.3l3.9,3.9l-16.6,19.2c0,0-10.4-1.3-19.6,5.2c-9.2,6.4-20.8,16.7-28.2,24.1
	c-7.4,7.4-35.6,35.5-54,72.6c-18.5,37.2-26.6,63.3-26.6,94.5h31.2c0,0,17.4-29.7,31.2-46.8c13.8-17,70-25.6,70-25.6l57.3,60.8
	C141.3,342.9,83.5,397.3,83.5,397.3c-18.9,16.2-17.5,46.3-0.1,63.8c8.9,8.8,20.9,13.4,32.8,13.4c11.6,0,22.9-4.4,31-13.7
	c0,0,53.1-56.6,104.2-110.9l112.1,118.9h0c5.9,8,19.9,8,27.7-2l45.9-45.6c8-8,8-19.9,0-27.8l-129-103.7c19.6-20.8,33.7-35.7,36.1-38
	c4.2-4.1,8.1-5.3,11.6-5.3c3.5,0,6.6,1.3,9,2.5c10.4,5.3,22,7.8,33.9,7.8c28.1,0,57.6-13,75.6-31c25.6-25.6,30.3-50.3,31-62.9
	C506.1,152.1,503.2,138.8,494.3,126.7z"/>
</svg>
